<svg version="1.1" width="8.267in" height="12.69in" viewBox="0 0 2480 3807" stroke="#000" fill="none" xmlns="http://www.w3.org/2000/svg" xmlns:xlink="http://www.w3.org/1999/xlink" >
<polyline points="2322,2743 720,3338 397,2444 132,780 696,185 2232,753 2322,2743 2322,2743 " stroke="rgb(0, 0 ,0 )" stroke-opacity="1.00000" stroke-width="3" />
<polyline points="755,3265 710,3142 677,3154 645,3068 679,3055 644,2959 610,2971 578,2884 612,2872 577,2775 543,2788 512,2702 716,2628 727,2659 800,2632 890,2628 888,2596 1057,2588 1091,2586 1096,2677 1061,2679 1066,2781 1101,2779 1105,2872 1071,2874 1076,2976 1110,2975 1115,3079 1081,3081 1086,3190 943,3196 942,3185 911,3186 882,3197 890,3216 755,3265 755,3265 " stroke="rgb(0, 0 ,0 )" stroke-opacity="1.00000" />
<polyline points="498,2557 464,2569 420,2442 452,2430 419,2222 383,2228 363,2100 398,2094 399,2096 581,2067 593,2142 645,2134 677,2334 713,2432 616,2468 629,2505 498,2557 498,2557 " stroke="rgb(0, 0 ,0 )" stroke-opacity="1.00000" />
<polyline points="908,2453 906,2410 810,2415 795,2103 847,2100 844,2024 1028,2015 1028,2013 1064,2011 1070,2141 1034,2143 1044,2354 1080,2352 1085,2445 1049,2447 908,2453 908,2453 " stroke="rgb(0, 0 ,0 )" stroke-opacity="1.00000" />
<polyline points="518,1671 507,1602 559,1594 510,1292 459,1300 450,1249 232,1283 247,1375 283,1370 316,1579 280,1584 281,1589 300,1710 518,1676 518,1671 518,1671 " stroke="rgb(0, 0 ,0 )" stroke-opacity="1.00000" />
<polyline points="210,1144 190,1017 225,1012 191,798 216,783 243,766 272,747 306,722 336,700 376,668 415,634 458,593 496,554 526,521 564,476 594,438 624,395 658,343 682,303 699,274 712,249 993,353 1005,319 1126,364 1049,571 1024,561 990,654 934,633 951,589 865,557 808,617 735,548 710,575 784,643 590,848 517,779 492,806 565,875 524,917 491,886 447,932 454,975 499,968 508,1026 409,1042 420,1111 210,1144 210,1144 " stroke="rgb(0, 0 ,0 )" stroke-opacity="1.00000" />
<polyline points="1010,1620 917,1624 825,1629 825,1624 823,1583 771,1585 755,1260 808,1257 805,1203 809,1203 897,1194 989,1190 989,1188 1025,1186 1031,1316 995,1318 1005,1529 1041,1527 1046,1620 1010,1622 1010,1620 " stroke="rgb(0, 0 ,0 )" stroke-opacity="1.00000" />
<polyline points="1163,671 1234,481 1334,518 1339,613 1370,612 1371,629 1802,610 1811,780 2037,769 2040,822 2178,815 2186,973 2222,972 2227,1089 2050,1097 2045,981 2016,982 2017,1001 1908,1006 1910,1041 1817,1045 1815,1011 1589,1021 1591,1056 1498,1060 1496,1026 1390,1031 1391,1048 1360,1050 1365,1169 1222,1176 1209,896 1331,891 1330,857 1294,858 1291,810 1327,808 1326,774 1204,780 1199,684 1163,671 1163,671 " stroke="rgb(0, 0 ,0 )" stroke-opacity="1.00000" />
<polyline points="1236,1468 1379,1462 1385,1581 1416,1580 1417,1597 1523,1592 1521,1558 1614,1553 1616,1587 1842,1577 1840,1542 1933,1538 1935,1572 2044,1567 2044,1587 2073,1585 2068,1468 2209,1462 2222,1737 2108,1743 2110,1789 2224,1783 2237,2059 2096,2066 2091,1949 2062,1950 2063,1969 1954,1975 1956,2009 1863,2013 1861,1979 1635,1990 1637,2024 1544,2028 1542,1994 1436,1999 1437,2016 1405,2018 1411,2138 1268,2144 1255,1865 1377,1859 1376,1825 1340,1827 1337,1778 1373,1776 1372,1742 1250,1748 1250,1748 1236,1468 1236,1468 " stroke="rgb(0, 0 ,0 )" stroke-opacity="1.00000" />
<polyline points="1279,2370 1422,2364 1428,2483 1459,2482 1460,2499 1566,2494 1564,2460 1657,2455 1659,2490 1885,2479 1883,2445 1976,2440 1978,2474 2086,2470 2087,2489 2116,2487 2111,2370 2288,2362 2293,2479 2257,2481 2265,2639 2126,2646 2129,2699 1902,2709 1910,2881 1678,2892 1680,2926 1586,2930 1585,2896 1479,2901 1480,2918 1448,2920 1454,3039 1311,3046 1298,2767 1420,2761 1418,2727 1382,2729 1380,2680 1416,2678 1414,2644 1292,2650 1279,2370 1279,2370 " stroke="rgb(0, 0 ,0 )" stroke-opacity="1.00000" />
<text transform="translate(534 697 ) rotate(-360) scale(1.000000 1) skewX(-0.000000)" font-family="Arial" font-size="106pt" xml:space="preserve" letter-spacing="0.000000" lengthAdjustq="spacingAndGlyphs" font-style="" font-weight="" text-decoration="" stroke="rgb(0, 0 ,0 )" fill="rgb(0, 0 ,0 )" stroke-opacity="1.00000" fill-opacity="1.00000" >A</text>
<text transform="translate(363 1525 ) rotate(-360) scale(1.000000 1) skewX(-0.000000)" font-family="Arial" font-size="106pt" xml:space="preserve" letter-spacing="0.000000" lengthAdjustq="spacingAndGlyphs" font-style="" font-weight="" text-decoration="" stroke="rgb(0, 0 ,0 )" fill="rgb(0, 0 ,0 )" stroke-opacity="1.00000" fill-opacity="1.00000" >B</text>
<text transform="translate(834 1473 ) rotate(-360) scale(1.000000 1) skewX(-0.000000)" font-family="Arial" font-size="106pt" xml:space="preserve" letter-spacing="0.000000" lengthAdjustq="spacingAndGlyphs" font-style="" font-weight="" text-decoration="" stroke="rgb(0, 0 ,0 )" fill="rgb(0, 0 ,0 )" stroke-opacity="1.00000" fill-opacity="1.00000" >F</text>
<text transform="translate(487 2363 ) rotate(-360) scale(1.000000 1) skewX(-0.000000)" font-family="Arial" font-size="106pt" xml:space="preserve" letter-spacing="0.000000" lengthAdjustq="spacingAndGlyphs" font-style="" font-weight="" text-decoration="" stroke="rgb(0, 0 ,0 )" fill="rgb(0, 0 ,0 )" stroke-opacity="1.00000" fill-opacity="1.00000" >C</text>
<text transform="translate(863 2311 ) rotate(-360) scale(1.000000 1) skewX(-0.000000)" font-family="Arial" font-size="106pt" xml:space="preserve" letter-spacing="0.000000" lengthAdjustq="spacingAndGlyphs" font-style="" font-weight="" text-decoration="" stroke="rgb(0, 0 ,0 )" fill="rgb(0, 0 ,0 )" stroke-opacity="1.00000" fill-opacity="1.00000" >E</text>
<text transform="translate(793 2978 ) rotate(-360) scale(1.000000 1) skewX(-0.000000)" font-family="Arial" font-size="106pt" xml:space="preserve" letter-spacing="0.000000" lengthAdjustq="spacingAndGlyphs" font-style="" font-weight="" text-decoration="" stroke="rgb(0, 0 ,0 )" fill="rgb(0, 0 ,0 )" stroke-opacity="1.00000" fill-opacity="1.00000" >D</text>
<text transform="translate(1680 2737 ) rotate(-360) scale(1.000000 1) skewX(-0.000000)" font-family="Arial" font-size="106pt" xml:space="preserve" letter-spacing="0.000000" lengthAdjustq="spacingAndGlyphs" font-style="" font-weight="" text-decoration="" stroke="rgb(0, 0 ,0 )" fill="rgb(0, 0 ,0 )" stroke-opacity="1.00000" fill-opacity="1.00000" >J</text>
<text transform="translate(1668 1826 ) rotate(-360) scale(1.000000 1) skewX(-0.000000)" font-family="Arial" font-size="106pt" xml:space="preserve" letter-spacing="0.000000" lengthAdjustq="spacingAndGlyphs" font-style="" font-weight="" text-decoration="" stroke="rgb(0, 0 ,0 )" fill="rgb(0, 0 ,0 )" stroke-opacity="1.00000" fill-opacity="1.00000" >H</text>
<text transform="translate(1589 895 ) rotate(-360) scale(1.000000 1) skewX(-0.000000)" font-family="Arial" font-size="106pt" xml:space="preserve" letter-spacing="0.000000" lengthAdjustq="spacingAndGlyphs" font-style="" font-weight="" text-decoration="" stroke="rgb(0, 0 ,0 )" fill="rgb(0, 0 ,0 )" stroke-opacity="1.00000" fill-opacity="1.00000" >G</text>
</svg>
